<svg width="35" height="35" viewBox="0 0 35 35" fill="none" xmlns="http://www.w3.org/2000/svg">
<path d="M29.873 0H5.12695C2.30029 0 0 2.30029 0 5.12695V29.873C0 32.7004 2.30029 35 5.12695 35H29.873C32.7004 35 35 32.7004 35 29.873V5.12695C35 2.30029 32.7004 0 29.873 0ZM32.9492 29.873C32.9492 31.569 31.569 32.9492 29.873 32.9492H5.12695C3.43096 32.9492 2.05078 31.569 2.05078 29.873V5.12695C2.05078 3.43096 3.43096 2.05078 5.12695 2.05078H29.873C31.569 2.05078 32.9492 3.43096 32.9492 5.12695V29.873Z" fill="#2C281B"/>
<path d="M28.7793 4.16992C27.6486 4.16992 26.7285 5.09004 26.7285 6.2207C26.7285 7.35137 27.6486 8.27148 28.7793 8.27148C29.91 8.27148 30.8301 7.35137 30.8301 6.2207C30.8301 5.09004 29.91 4.16992 28.7793 4.16992Z" fill="#2C281B"/>
<path d="M17.5 8.27148C12.4113 8.27148 8.27148 12.4113 8.27148 17.5C8.27148 22.5887 12.4113 26.7285 17.5 26.7285C22.5887 26.7285 26.7285 22.5887 26.7285 17.5C26.7285 12.4113 22.5887 8.27148 17.5 8.27148ZM17.5 24.6777C13.542 24.6777 10.3223 21.458 10.3223 17.5C10.3223 13.542 13.542 10.3223 17.5 10.3223C21.458 10.3223 24.6777 13.542 24.6777 17.5C24.6777 21.458 21.458 24.6777 17.5 24.6777Z" fill="#2C281B"/>
</svg>
