<svg width="35" height="35" viewBox="0 0 35 35" fill="none" xmlns="http://www.w3.org/2000/svg">
<path d="M29.873 4.16992H5.12695C2.29961 4.16992 0 6.47021 0 9.29688V25.7031C0 28.5298 2.29961 30.8301 5.12695 30.8301H29.873C32.7004 30.8301 35 28.5298 35 25.7031V9.29688C35 6.47021 32.7004 4.16992 29.873 4.16992ZM32.9492 25.7031C32.9492 27.3991 31.569 28.7793 29.873 28.7793H5.12695C3.43096 28.7793 2.05078 27.3991 2.05078 25.7031V9.29688C2.05078 7.60088 3.43096 6.2207 5.12695 6.2207H29.873C31.569 6.2207 32.9492 7.60088 32.9492 9.29688V25.7031Z" fill="#2C281B"/>
<path d="M23.1929 16.6038L13.9644 11.4769C13.6473 11.3005 13.2597 11.3053 12.9466 11.4892C12.6335 11.6737 12.4414 12.0101 12.4414 12.373V22.7979C12.4414 23.1636 12.6362 23.502 12.9527 23.6852C13.2754 23.8718 13.6664 23.8656 13.9774 23.6872L23.2059 18.3894C23.5265 18.2055 23.7234 17.8623 23.7207 17.4925C23.7179 17.1227 23.5163 16.7829 23.1929 16.6038ZM14.4922 21.0267V14.1155L20.6103 17.5144L14.4922 21.0267Z" fill="#2C281B"/>
</svg>
