<svg width="35" height="35" viewBox="0 0 35 35" fill="none" xmlns="http://www.w3.org/2000/svg">
<path d="M25.7031 8.20312C26.2692 8.20312 26.7285 7.74375 26.7285 7.17773V1.02539C26.7285 0.459375 26.2692 0 25.7031 0H19.5508C15.5928 0 12.373 3.21973 12.373 7.17773V12.3047H9.29688C8.73086 12.3047 8.27148 12.7641 8.27148 13.3301V19.4824C8.27148 20.0484 8.73086 20.5078 9.29688 20.5078H12.373V33.9746C12.373 34.5406 12.8324 35 13.3984 35H19.5508C20.1168 35 20.5762 34.5406 20.5762 33.9746V20.5078H24.6777C25.1788 20.5078 25.6068 20.1455 25.6895 19.6513L26.7149 13.4989C26.7641 13.2016 26.6807 12.8974 26.4859 12.667C26.291 12.4373 26.0046 12.3047 25.7031 12.3047H20.5762V8.20312H25.7031ZM19.5508 14.3555H24.4925L23.8089 18.457H19.5508C18.9848 18.457 18.5254 18.9164 18.5254 19.4824V32.9492H14.4238V19.4824C14.4238 18.9164 13.9645 18.457 13.3984 18.457H10.3223V14.3555H13.3984C13.9645 14.3555 14.4238 13.8961 14.4238 13.3301V7.17773C14.4238 4.35107 16.7241 2.05078 19.5508 2.05078H24.6777V6.15234H19.5508C18.9848 6.15234 18.5254 6.61172 18.5254 7.17773V13.3301C18.5254 13.8961 18.9848 14.3555 19.5508 14.3555Z" fill="#2C281B"/>
</svg>
