<svg width="20" height="20" viewBox="0 0 20 20" fill="none" xmlns="http://www.w3.org/2000/svg">
<path d="M14.6875 4.6875C15.0109 4.6875 15.2734 4.425 15.2734 4.10156V0.585938C15.2734 0.2625 15.0109 0 14.6875 0H11.1718C8.91013 0 7.07028 1.83984 7.07028 4.10156V7.03125H5.31247C4.98903 7.03125 4.72653 7.29375 4.72653 7.61719V11.1328C4.72653 11.4563 4.98903 11.7188 5.31247 11.7188H7.07028V19.4141C7.07028 19.7375 7.33278 20 7.65622 20H11.1718C11.4953 20 11.7578 19.7375 11.7578 19.4141V11.7188H14.1015C14.3879 11.7188 14.6324 11.5117 14.6797 11.2293L15.2656 7.71367C15.2937 7.54375 15.2461 7.36992 15.1347 7.23828C15.0234 7.10703 14.8597 7.03125 14.6875 7.03125H11.7578V4.6875H14.6875ZM11.1718 8.20312H13.9957L13.6051 10.5469H11.1718C10.8484 10.5469 10.5859 10.8094 10.5859 11.1328V18.8281H8.24216V11.1328C8.24216 10.8094 7.97966 10.5469 7.65622 10.5469H5.89841V8.20312H7.65622C7.97966 8.20312 8.24216 7.94063 8.24216 7.61719V4.10156C8.24216 2.48633 9.55661 1.17188 11.1718 1.17188H14.1015V3.51562H11.1718C10.8484 3.51562 10.5859 3.77813 10.5859 4.10156V7.61719C10.5859 7.94063 10.8484 8.20312 11.1718 8.20312Z" fill="#2C281B"/>
</svg>
