<svg width="10" height="10" viewBox="0 0 10 10" fill="none" xmlns="http://www.w3.org/2000/svg">
<path d="M5 0C2.23627 0 0 2.2365 0 5C0 7.76373 2.2365 10 5 10C7.76373 10 10 7.7635 10 5C10 2.23627 7.7635 0 5 0ZM5 9.33334C2.61061 9.33334 0.66666 7.38941 0.66666 5C0.66666 2.61059 2.61061 0.66666 5 0.66666C7.38939 0.66666 9.33334 2.61061 9.33334 5C9.33334 7.38939 7.38939 9.33334 5 9.33334Z" fill="#FFFCF2"/>
<path d="M7.64678 3.16257C7.51661 3.0324 7.30553 3.0324 7.17537 3.16257L4.20785 6.13008L2.82465 4.7469C2.69447 4.61673 2.4834 4.61673 2.35324 4.7469C2.22306 4.87708 2.22306 5.08813 2.35324 5.21831L3.97213 6.83719C4.10228 6.96734 4.31342 6.9673 4.44354 6.83719L7.64678 3.63396C7.77696 3.50378 7.77696 3.29275 7.64678 3.16257Z" fill="#FFFCF2"/>
</svg>
