<svg width="53" height="60" viewBox="0 0 53 60" fill="none" xmlns="http://www.w3.org/2000/svg">
<path d="M2.26129 38.8654H7.4063C7.44442 39.0432 7.45712 39.2083 7.48253 39.3607C7.49523 39.5131 7.50793 39.6655 7.50793 39.8052C7.50793 40.072 7.46982 40.3895 7.4063 40.7705H4.40822V42.2566H6.75841C6.83464 42.6249 6.87275 42.9424 6.87275 43.2091C6.87275 43.4886 6.83464 43.8061 6.75841 44.1744H4.40822V47.6037C3.9763 47.6799 3.62059 47.718 3.34111 47.718C3.03622 47.718 2.68051 47.6799 2.26129 47.6037V38.8654Z" fill="#EFC47A"/>
<path d="M9.22296 43.2726C9.22296 42.6249 9.29918 42.0152 9.45163 41.4691C9.60407 40.9102 9.83274 40.4276 10.1503 40.0212C10.4679 39.6147 10.8617 39.2972 11.3445 39.0686C11.8272 38.84 12.3989 38.7256 13.0722 38.7256C13.7328 38.7256 14.3172 38.84 14.7872 39.0686C15.2699 39.2972 15.6638 39.6147 15.9813 40.0212C16.2989 40.4276 16.5276 40.9102 16.6801 41.4691C16.8325 42.0279 16.9087 42.6249 16.9087 43.2726C16.9087 43.9204 16.8325 44.5173 16.6801 45.0635C16.5276 45.6096 16.2989 46.0923 15.9813 46.486C15.6638 46.8925 15.2699 47.1973 14.7872 47.4259C14.3045 47.6545 13.7328 47.7561 13.0722 47.7561C12.4116 47.7561 11.8272 47.6418 11.3445 47.4259C10.8617 47.1973 10.4679 46.8925 10.1503 46.486C9.83274 46.0796 9.60407 45.6096 9.45163 45.0635C9.29918 44.5173 9.22296 43.9204 9.22296 43.2726ZM14.622 43.2726C14.622 41.5072 14.1012 40.6181 13.0722 40.6181C12.0178 40.6181 11.4842 41.5072 11.4842 43.2726C11.4842 44.1617 11.6113 44.8222 11.8653 45.254C12.1194 45.6858 12.5132 45.9018 13.0595 45.9018C14.1012 45.9018 14.622 45.0254 14.622 43.2726Z" fill="#EFC47A"/>
<path d="M19.6019 38.8781C19.7671 38.8527 19.9576 38.8273 20.1609 38.8146C20.3642 38.7892 20.542 38.7892 20.7199 38.7892C20.885 38.7892 21.0629 38.8019 21.2534 38.8146C21.444 38.84 21.6218 38.8527 21.787 38.8781L23.5147 43.4124L25.3059 38.8781C25.4711 38.8527 25.6362 38.8273 25.8014 38.8146C25.9665 38.7892 26.1316 38.7892 26.2968 38.7892C26.4619 38.7892 26.6398 38.8019 26.8176 38.8146C26.9955 38.84 27.1734 38.8527 27.3385 38.8781L27.7577 47.5783C27.6307 47.6037 27.4782 47.6291 27.3258 47.6545C27.1734 47.6799 26.9574 47.6926 26.7033 47.6926C26.4238 47.6926 26.0808 47.6545 25.687 47.5783L25.5219 42.536L24.1753 45.8637C24.0228 45.8891 23.8831 45.9145 23.7306 45.9272C23.5782 45.9399 23.4512 45.9526 23.3241 45.9526C23.1971 45.9526 23.07 45.9526 22.943 45.9399C22.816 45.9272 22.6762 45.9018 22.5365 45.8764L21.3423 42.5995L21.2026 47.591C20.8596 47.6672 20.542 47.7053 20.2244 47.7053C19.9449 47.7053 19.6146 47.6672 19.2335 47.591L19.6019 38.8781Z" fill="#EFC47A"/>
<path d="M31.4164 47.6926C31.1115 47.6926 30.7558 47.6545 30.3365 47.5783V38.8781C30.5525 38.84 30.7558 38.8273 30.9336 38.8019C31.1115 38.7892 31.2766 38.7765 31.4037 38.7765C31.5561 38.7765 31.7085 38.7892 31.8991 38.8019C32.0769 38.8146 32.2802 38.84 32.4962 38.8781V47.5783C32.0642 47.6545 31.7085 47.6926 31.4164 47.6926Z" fill="#EFC47A"/>
<path d="M37.2347 43.26C37.2347 44.9873 37.9588 45.8383 39.407 45.8383C39.6611 45.8383 39.9152 45.8129 40.1438 45.7621C40.3725 45.7113 40.652 45.6351 40.995 45.5207C41.2617 46.105 41.4396 46.7019 41.5285 47.3243C41.2872 47.4132 41.0712 47.4894 40.8679 47.5402C40.6647 47.591 40.4741 47.6418 40.2836 47.6672C40.093 47.6926 39.9152 47.718 39.7246 47.7307C39.534 47.7434 39.3562 47.7434 39.1529 47.7434C38.4669 47.7434 37.8571 47.6291 37.3363 47.4132C36.8154 47.1846 36.3708 46.8798 36.0151 46.486C35.6594 46.0923 35.3926 45.6097 35.2148 45.0635C35.0369 44.5174 34.948 43.9077 34.948 43.26C34.948 42.6122 35.0369 42.0025 35.2275 41.4564C35.418 40.8975 35.6848 40.4149 36.0405 40.0085C36.3962 39.602 36.8281 39.2845 37.349 39.0559C37.8699 38.8273 38.4542 38.713 39.1148 38.713C39.5086 38.713 39.877 38.7384 40.22 38.8019C40.563 38.8527 40.9569 38.967 41.3888 39.1448C41.3761 39.475 41.3126 39.8052 41.2109 40.1101C41.1093 40.4276 40.995 40.6943 40.8806 40.9356C40.7155 40.8848 40.5757 40.834 40.436 40.7832C40.2963 40.7451 40.1692 40.707 40.0549 40.6816C39.9279 40.6562 39.8135 40.6435 39.6865 40.6308C39.5594 40.6181 39.4324 40.6181 39.2927 40.6181C38.6321 40.6181 38.1239 40.834 37.7682 41.2786C37.4125 41.7231 37.2347 42.3836 37.2347 43.26Z" fill="#EFC47A"/>
<path d="M49.227 47.6926C48.9221 47.6926 48.5664 47.6545 48.1472 47.5783V44.022H45.9876V47.5783C45.5556 47.6545 45.1999 47.6926 44.9205 47.6926C44.6156 47.6926 44.2599 47.6545 43.8406 47.5783V38.8781C44.0566 38.84 44.2599 38.8273 44.4377 38.8019C44.6156 38.7892 44.7807 38.7765 44.9078 38.7765C45.0602 38.7765 45.2126 38.7892 45.4032 38.8019C45.581 38.8146 45.7843 38.84 46.0003 38.8781V42.1041H48.1599V38.8781C48.3759 38.84 48.5791 38.8273 48.757 38.8019C48.9348 38.7892 49.0873 38.7765 49.2397 38.7765C49.3922 38.7765 49.5446 38.7892 49.7352 38.8019C49.913 38.8146 50.1163 38.84 50.3322 38.8781V47.5783C49.8749 47.6545 49.5192 47.6926 49.227 47.6926Z" fill="#EFC47A"/>
<path fill-rule="evenodd" clip-rule="evenodd" d="M26.284 0.457245C35.6467 0.457245 43.2435 8.0525 43.2435 17.4132C43.2435 26.2659 36.4597 33.5309 27.8212 34.3057C27.5163 33.061 27.4528 31.8163 27.8212 30.5461C34.4017 29.7841 39.4959 24.1956 39.4959 17.4259C39.4959 10.1228 33.576 4.21677 26.284 4.21677C18.9794 4.21677 13.0721 10.1355 13.0721 17.4259C13.0721 22.5953 16.0448 27.0787 20.3768 29.2506V10.3006H31.9753C32.0515 10.707 32.1023 11.0754 32.1405 11.431C32.1786 11.7739 32.1913 12.1042 32.1913 12.4217C32.1913 13.0313 32.115 13.7553 31.9753 14.5936H25.2423V17.9467H30.5398C30.7049 18.7722 30.7812 19.4835 30.7812 20.0931C30.7812 20.7155 30.7049 21.4395 30.5398 22.265H25.2423V22.4428V34.3565C16.3624 33.823 9.32454 26.4437 9.32454 17.4259C9.31184 8.0525 16.9087 0.457245 26.284 0.457245Z" fill="#EFC47A"/>
<path d="M41.122 55.4149C41.5794 55.6181 41.9351 55.8721 42.1637 56.2024C42.4051 56.5326 42.5194 56.9136 42.5194 57.3582C42.5194 58.0059 42.3162 58.5394 41.8969 58.9331C41.4777 59.3268 40.9315 59.5301 40.2455 59.5301C39.6865 59.5301 39.2165 59.3903 38.8353 59.0982C38.4542 58.8061 38.2002 58.4124 38.0731 57.8789L38.8353 57.4979C38.937 57.9297 39.1148 58.2599 39.3435 58.4759C39.5849 58.6918 39.8771 58.8061 40.2328 58.8061C40.652 58.8061 40.995 58.6791 41.2618 58.4378C41.5285 58.1964 41.6556 57.8789 41.6556 57.4852C41.6556 57.1677 41.5667 56.8882 41.3761 56.6596C41.1982 56.4183 40.9188 56.2278 40.5504 56.0627L39.6865 55.6943C39.2165 55.4911 38.8608 55.2498 38.6321 54.9323C38.4034 54.6274 38.2891 54.2464 38.2891 53.8146C38.2891 53.3065 38.4796 52.8874 38.848 52.5571C39.2292 52.2269 39.6992 52.0618 40.2836 52.0618C40.7155 52.0618 41.0839 52.1507 41.3888 52.3285C41.7064 52.5063 41.9478 52.7731 42.1129 53.1287L41.4142 53.5732C41.2618 53.2938 41.0839 53.0906 40.8806 52.9636C40.6774 52.8239 40.4614 52.7604 40.2073 52.7604C39.8898 52.7604 39.6357 52.862 39.4324 53.0525C39.2292 53.243 39.1275 53.497 39.1275 53.7892C39.1275 54.0432 39.2038 54.2591 39.3562 54.4369C39.5086 54.6274 39.75 54.7798 40.0803 54.9323L41.122 55.4149ZM34.7447 59.3522V53.0525H32.7376V52.2523H37.5904V53.0525H35.5959V59.3522H34.7447ZM29.0154 52.9636V55.3387H29.6632C30.3238 55.3387 30.7685 55.2498 30.9844 55.0847C31.2131 54.9196 31.3147 54.6147 31.3147 54.1956C31.3147 53.7384 31.2004 53.4208 30.9717 53.243C30.7431 53.0652 30.2984 52.9636 29.6505 52.9636H29.0154ZM28.1896 59.3522V52.2523H29.8538C30.3238 52.2523 30.6795 52.2777 30.8955 52.3285C31.1115 52.3793 31.3147 52.4682 31.4799 52.608C31.6958 52.7731 31.8483 52.989 31.9626 53.2684C32.077 53.5478 32.1405 53.8527 32.1405 54.1829C32.1405 54.7671 31.9753 55.2117 31.6577 55.5038C31.3274 55.8086 30.8574 55.961 30.2349 55.961H30.0825L32.8011 59.3522H31.734L29.1424 55.961H29.0281V59.3522H28.1896ZM24.2133 51.9729L27.4401 59.3522H26.5254L25.598 57.1804H22.8286L21.9013 59.3522H20.9866L24.2133 51.9729ZM24.2133 53.84L23.0827 56.4564H25.344L24.2133 53.84ZM18.2934 55.4022H18.7253C19.4494 55.4022 19.9322 55.3133 20.1863 55.1482C20.4403 54.9831 20.5674 54.6782 20.5674 54.2591C20.5674 53.8019 20.4403 53.4843 20.1863 53.3065C19.9322 53.1287 19.4494 53.0271 18.738 53.0271H18.2934V55.4022ZM18.2934 56.1643V59.3522H17.4677V52.2523H18.954C19.4748 52.2523 19.856 52.2777 20.11 52.3412C20.3514 52.392 20.5674 52.4809 20.7452 52.608C20.9739 52.7731 21.1517 52.989 21.2788 53.2684C21.4058 53.5478 21.4693 53.8654 21.4693 54.2083C21.4693 54.5512 21.4058 54.8688 21.2788 55.1482C21.1517 55.4276 20.9739 55.6562 20.7452 55.8086C20.5674 55.9356 20.3514 56.0246 20.11 56.0881C19.8687 56.1389 19.4748 56.177 18.954 56.177H18.7126H18.2934V56.1643ZM13.5041 51.9729L16.7308 59.3522H15.8162L14.8888 57.1804H12.1194L11.192 59.3522H10.29L13.5041 51.9729ZM13.5041 53.84L12.3735 56.4564H14.6347L13.5041 53.84Z" fill="#EFC47A"/>
</svg>
