<svg width="95" height="108" viewBox="0 0 95 108" fill="none" xmlns="http://www.w3.org/2000/svg">
<path d="M4.05322 69.6641H13.2754C13.3437 69.9828 13.3665 70.2787 13.412 70.5519C13.4348 70.8251 13.4576 71.0983 13.4576 71.3488C13.4576 71.8268 13.3893 72.396 13.2754 73.079H7.9015V75.7426H12.1141C12.2507 76.4028 12.319 76.972 12.319 77.4501C12.319 77.9509 12.2507 78.5201 12.1141 79.1803H7.9015V85.3272C7.12729 85.4637 6.4897 85.5321 5.98874 85.5321C5.44224 85.5321 4.80466 85.4637 4.05322 85.3272V69.6641Z" fill="#EFC47A"/>
<path d="M16.5317 77.5641C16.5317 76.403 16.6683 75.3102 16.9416 74.3313C17.2148 73.3296 17.6247 72.4645 18.1939 71.736C18.7632 71.0074 19.4691 70.4383 20.3344 70.0285C21.1997 69.6187 22.2244 69.4138 23.4312 69.4138C24.6153 69.4138 25.6628 69.6187 26.5053 70.0285C27.3706 70.4383 28.0765 71.0074 28.6458 71.736C29.215 72.4645 29.6249 73.3296 29.8982 74.3313C30.1714 75.333 30.308 76.403 30.308 77.5641C30.308 78.7252 30.1714 79.7952 29.8982 80.7741C29.6249 81.753 29.215 82.6182 28.6458 83.3239C28.0765 84.0524 27.3706 84.5988 26.5053 85.0086C25.64 85.4184 24.6153 85.6005 23.4312 85.6005C22.2472 85.6005 21.1997 85.3956 20.3344 85.0086C19.4691 84.5988 18.7632 84.0524 18.1939 83.3239C17.6247 82.5954 17.2148 81.753 16.9416 80.7741C16.6683 79.7952 16.5317 78.7252 16.5317 77.5641ZM26.2093 77.5641C26.2093 74.3996 25.2757 72.806 23.4312 72.806C21.5413 72.806 20.5849 74.3996 20.5849 77.5641C20.5849 79.1577 20.8126 80.3416 21.268 81.1156C21.7234 81.8896 22.4293 82.2767 23.4085 82.2767C25.2757 82.2767 26.2093 80.7058 26.2093 77.5641Z" fill="#EFC47A"/>
<path d="M35.1355 69.687C35.4315 69.6414 35.773 69.5959 36.1374 69.5731C36.5017 69.5276 36.8205 69.5276 37.1393 69.5276C37.4353 69.5276 37.7541 69.5504 38.0957 69.5731C38.4372 69.6187 38.756 69.6414 39.052 69.687L42.1489 77.8145L45.3596 69.687C45.6556 69.6414 45.9516 69.5959 46.2476 69.5731C46.5436 69.5276 46.8397 69.5276 47.1357 69.5276C47.4317 69.5276 47.7505 69.5504 48.0693 69.5731C48.3881 69.6187 48.7069 69.6414 49.0029 69.687L49.7543 85.2817C49.5266 85.3273 49.2534 85.3728 48.9801 85.4183C48.7069 85.4639 48.3198 85.4866 47.8643 85.4866C47.3634 85.4866 46.7486 85.4183 46.0427 85.2817L45.7467 76.2436L43.333 82.2083C43.0597 82.2539 42.8092 82.2994 42.536 82.3222C42.2627 82.3449 42.035 82.3677 41.8073 82.3677C41.5796 82.3677 41.3519 82.3677 41.1242 82.3449C40.8965 82.3222 40.646 82.2766 40.3955 82.2311L38.2551 76.3574L38.0046 85.3045C37.3898 85.4411 36.8205 85.5094 36.2512 85.5094C35.7503 85.5094 35.1582 85.4411 34.4751 85.3045L35.1355 69.687Z" fill="#EFC47A"/>
<path d="M56.3123 85.4867C55.7658 85.4867 55.1283 85.4184 54.3768 85.2818V69.687C54.7639 69.6187 55.1283 69.596 55.4471 69.5504C55.7658 69.5277 56.0619 69.5049 56.2896 69.5049C56.5628 69.5049 56.8361 69.5277 57.1776 69.5504C57.4964 69.5732 57.8607 69.6187 58.2478 69.687V85.2818C57.4736 85.4184 56.8361 85.4867 56.3123 85.4867Z" fill="#EFC47A"/>
<path d="M66.7414 77.5414C66.7414 80.6376 68.0393 82.1629 70.6352 82.1629C71.0906 82.1629 71.546 82.1174 71.9559 82.0263C72.3658 81.9353 72.8667 81.7987 73.4816 81.5938C73.9597 82.641 74.2785 83.711 74.4379 84.8266C74.0053 84.9859 73.6182 85.1225 73.2538 85.2136C72.8895 85.3046 72.5479 85.3957 72.2064 85.4412C71.8648 85.4868 71.546 85.5323 71.2045 85.5551C70.8629 85.5778 70.5441 85.5778 70.1798 85.5778C68.9502 85.5778 67.8572 85.3729 66.9236 84.9859C65.9899 84.5761 65.193 84.0297 64.5554 83.324C63.9178 82.6182 63.4396 81.7531 63.1208 80.7742C62.802 79.7952 62.6426 78.7025 62.6426 77.5414C62.6426 76.3803 62.802 75.2875 63.1436 74.3086C63.4852 73.3069 63.9633 72.4418 64.6009 71.7133C65.2385 70.9847 66.0127 70.4156 66.9463 70.0058C67.8799 69.596 68.9274 69.3911 70.1115 69.3911C70.8174 69.3911 71.4777 69.4366 72.0925 69.5505C72.7073 69.6415 73.4132 69.8464 74.1874 70.1652C74.1647 70.7571 74.0508 71.349 73.8687 71.8954C73.6865 72.4645 73.4815 72.9426 73.2766 73.3752C72.9806 73.2841 72.7301 73.1931 72.4796 73.102C72.2292 73.0337 72.0014 72.9654 71.7965 72.9199C71.5688 72.8743 71.3639 72.8516 71.1362 72.8288C70.9084 72.806 70.6807 72.806 70.4303 72.806C69.2462 72.806 68.3353 73.1931 67.6978 73.9899C67.0602 74.7867 66.7414 75.9705 66.7414 77.5414Z" fill="#EFC47A"/>
<path d="M88.2371 85.4867C87.6906 85.4867 87.053 85.4184 86.3015 85.2818V78.9073H82.4305V85.2818C81.6563 85.4184 81.0187 85.4867 80.5177 85.4867C79.9712 85.4867 79.3337 85.4184 78.5822 85.2818V69.687C78.9693 69.6187 79.3336 69.596 79.6524 69.5504C79.9712 69.5277 80.2673 69.5049 80.495 69.5049C80.7682 69.5049 81.0415 69.5277 81.383 69.5504C81.7018 69.5732 82.0662 69.6187 82.4533 69.687V75.4696H86.3243V69.687C86.7114 69.6187 87.0757 69.596 87.3945 69.5504C87.7133 69.5277 87.9866 69.5049 88.2598 69.5049C88.5331 69.5049 88.8063 69.5277 89.1479 69.5504C89.4667 69.5732 89.831 69.6187 90.2181 69.687V85.2818C89.3984 85.4184 88.7608 85.4867 88.2371 85.4867Z" fill="#EFC47A"/>
<path fill-rule="evenodd" clip-rule="evenodd" d="M47.1129 0.819336C63.895 0.819336 77.512 14.4335 77.512 31.2121C77.512 47.0801 65.3523 60.1023 49.8681 61.491C49.3216 59.26 49.2078 57.0289 49.8681 54.7523C61.6634 53.3863 70.7945 43.3692 70.7945 31.2349C70.7945 18.1444 60.1833 7.55811 47.1129 7.55811C34.0196 7.55811 23.4312 18.1671 23.4312 31.2349C23.4312 40.5007 28.7596 48.5371 36.5244 52.4301V18.4631H57.3142C57.4508 19.1916 57.5419 19.8518 57.6102 20.4893C57.6785 21.1039 57.7013 21.6959 57.7013 22.265C57.7013 23.3578 57.5647 24.6555 57.3142 26.158H45.2457V32.1683H54.7411C55.0371 33.6481 55.1737 34.923 55.1737 36.0158C55.1737 37.1313 55.0371 38.429 54.7411 39.9088H45.2457V40.2275V61.5821C29.3288 60.6259 16.7138 47.3988 16.7138 31.2349C16.691 14.4335 30.308 0.819336 47.1129 0.819336Z" fill="#EFC47A"/>
<path d="M73.7093 99.3283C74.529 99.6926 75.1666 100.148 75.5765 100.74C76.0091 101.332 76.2141 102.015 76.2141 102.812C76.2141 103.973 75.8497 104.929 75.0983 105.635C74.3469 106.34 73.3677 106.705 72.1381 106.705C71.1362 106.705 70.2937 106.454 69.6105 105.93C68.9274 105.407 68.472 104.701 68.2443 103.745L69.6105 103.062C69.7927 103.836 70.1115 104.428 70.5214 104.815C70.954 105.202 71.4777 105.407 72.1153 105.407C72.8668 105.407 73.4816 105.179 73.9598 104.747C74.4379 104.314 74.6656 103.745 74.6656 103.039C74.6656 102.47 74.5063 101.969 74.1647 101.559C73.8459 101.127 73.3449 100.785 72.6846 100.489L71.1362 99.8292C70.2936 99.4649 69.6561 99.0323 69.2462 98.4632C68.8363 97.9168 68.6314 97.2338 68.6314 96.4598C68.6314 95.5491 68.9729 94.7978 69.6333 94.2059C70.3164 93.614 71.1589 93.3181 72.2064 93.3181C72.9806 93.3181 73.641 93.4774 74.1875 93.7961C74.7567 94.1149 75.1894 94.593 75.4854 95.2304L74.233 96.0272C73.9598 95.5264 73.641 95.1621 73.2766 94.9344C72.9123 94.684 72.5252 94.5702 72.0698 94.5702C71.5005 94.5702 71.0451 94.7523 70.6808 95.0938C70.3164 95.4353 70.1343 95.8906 70.1343 96.4142C70.1343 96.8696 70.2709 97.2566 70.5441 97.5753C70.8174 97.9168 71.25 98.19 71.8421 98.4632L73.7093 99.3283ZM62.2783 106.386V95.0938H58.6805V93.6595H67.379V95.0938H63.804V106.386H62.2783ZM52.0086 94.9344V99.1917H53.17C54.354 99.1917 55.151 99.0324 55.5381 98.7364C55.948 98.4404 56.1302 97.894 56.1302 97.1428C56.1302 96.3232 55.9252 95.754 55.5154 95.4353C55.1055 95.1166 54.3085 94.9344 53.1472 94.9344H52.0086ZM50.5285 106.386V93.6595H53.5115C54.354 93.6595 54.9916 93.7051 55.3787 93.7961C55.7658 93.8872 56.1302 94.0466 56.4262 94.297C56.8133 94.593 57.0865 94.98 57.2915 95.4808C57.4964 95.9817 57.6103 96.5281 57.6103 97.12C57.6103 98.1672 57.3143 98.9641 56.745 99.4877C56.1529 100.034 55.3104 100.307 54.1946 100.307H53.9214L58.7944 106.386H56.8816L52.2364 100.307H52.0314V106.386H50.5285ZM43.4013 93.1587L49.1851 106.386H47.5456L45.8833 102.493H40.9192L39.257 106.386H37.6175L43.4013 93.1587ZM43.4013 96.5053L41.3747 101.195H45.4279L43.4013 96.5053ZM32.79 99.3055H33.5642C34.8622 99.3055 35.7275 99.1462 36.1829 98.8502C36.6383 98.5543 36.866 98.0079 36.866 97.2566C36.866 96.437 36.6383 95.8679 36.1829 95.5491C35.7275 95.2304 34.8622 95.0483 33.587 95.0483H32.79V99.3055ZM32.79 100.672V106.386H31.3099V93.6595H33.9741C34.9077 93.6595 35.5909 93.7051 36.0463 93.8189C36.4789 93.91 36.866 94.0693 37.1848 94.297C37.5947 94.593 37.9135 94.98 38.1412 95.4808C38.3689 95.9817 38.4828 96.5508 38.4828 97.1655C38.4828 97.7802 38.3689 98.3494 38.1412 98.8502C37.9135 99.3511 37.5947 99.7609 37.1848 100.034C36.866 100.262 36.4789 100.421 36.0463 100.535C35.6136 100.626 34.9077 100.694 33.9741 100.694H33.5415H32.79V100.672ZM24.2054 93.1587L29.9892 106.386H28.3497L26.6874 102.493H21.7234L20.0611 106.386H18.4444L24.2054 93.1587ZM24.2054 96.5053L22.1788 101.195H26.232L24.2054 96.5053Z" fill="#EFC47A"/>
</svg>
