<svg width="20" height="20" viewBox="0 0 20 20" fill="none" xmlns="http://www.w3.org/2000/svg">
<path d="M13.2575 10.1025L20 14.365V5.66L13.2575 10.1025Z" fill="#2C281B"/>
<path d="M0 5.66V14.365L6.7425 10.1025L0 5.66Z" fill="#2C281B"/>
<path d="M18.75 3.125H1.25001C0.62626 3.125 0.13126 3.59 0.0375099 4.18875L10 10.7525L19.9625 4.18875C19.8688 3.59 19.3738 3.125 18.75 3.125Z" fill="#2C281B"/>
<path d="M12.1125 10.8575L10.3438 12.0225C10.2388 12.0913 10.12 12.125 10 12.125C9.88001 12.125 9.76126 12.0913 9.65626 12.0225L7.88751 10.8563L0.0400124 15.82C0.136262 16.4138 0.628762 16.875 1.25001 16.875H18.75C19.3713 16.875 19.8638 16.4138 19.96 15.82L12.1125 10.8575Z" fill="#2C281B"/>
</svg>
