<svg width="35" height="35" viewBox="0 0 35 35" fill="none" xmlns="http://www.w3.org/2000/svg">
<g clip-path="url(#clip0)">
<path d="M34.417 1.52721e-08C34.4169 1.52721e-08 34.4167 1.52721e-08 34.4167 1.52721e-08H0.583333C0.26126 -7.29014e-05 7.29167e-05 0.260969 0 0.583042C0 0.583115 0 0.58326 0 0.583333V12.25H1.16667V1.16667H33.8333V14H13.4167V15.1667H34.4167C34.7387 15.1667 34.9999 14.9057 35 14.5836C35 14.5836 35 14.5834 35 14.5833V0.583333C35.0001 0.26126 34.739 7.2932e-05 34.417 1.52721e-08Z" fill="#EFC47A"/>
<path d="M30.9167 2.91663H19.25V4.08329H30.9167V2.91663Z" fill="#EFC47A"/>
<path d="M32.6667 6.41663H21V7.58329H32.6667V6.41663Z" fill="#EFC47A"/>
<path d="M30.3333 9.91663H18.6667V11.0833H30.3333V9.91663Z" fill="#EFC47A"/>
<path d="M18.6201 5.02939C18.2208 4.06945 17.1189 3.61503 16.159 4.01439C16.1426 4.02125 16.1263 4.02825 16.1101 4.03554L11.3801 6.48919C11.5666 6.10258 11.6646 5.67923 11.6667 5.25004C11.6667 3.63924 10.3608 2.33337 8.75 2.33337C7.1392 2.33337 5.83333 3.63924 5.83333 5.25004C5.83552 5.88318 6.04574 6.49808 6.43162 7.00004H6.40733C4.75154 7.01112 3.27345 8.04049 2.68888 9.58975L1.13167 14.9571C0.760958 15.92 1.24104 17.0012 2.20405 17.3719C2.64316 17.5409 3.12988 17.5381 3.56701 17.3639C4.06926 17.1616 4.46009 16.7529 4.63998 16.2422L5.25 14.3008V22.7433C4.74804 22.3575 4.13314 22.1473 3.5 22.1451C1.8916 22.1426 0.58574 23.4446 0.583333 25.053C0.582167 25.8408 0.900083 26.5953 1.46468 27.1447C0.568677 27.6024 0.00350002 28.5223 1.52721e-08 29.5284V34.4167C-7.29014e-05 34.7388 0.260969 35 0.583042 35C0.583115 35 0.58326 35 0.583333 35H6.41667C6.73874 35.0001 6.99993 34.7391 7 34.417C7 34.4169 7 34.4168 7 34.4167V29.5284C6.99716 28.7016 6.61303 27.9225 5.95904 27.4167H10.3744C9.7203 27.9225 9.33618 28.7016 9.33341 29.5284V34.4167C9.33333 34.7388 9.59438 35 9.91645 35C9.91652 35 9.91667 35 9.91674 35H15.7501C16.0721 35.0001 16.3333 34.7391 16.3334 34.417C16.3334 34.4169 16.3334 34.4168 16.3334 34.4167V29.5284C16.3299 28.5223 15.7647 27.6024 14.8687 27.1447C16.0204 26.0205 16.0428 24.1755 14.9187 23.0238C14.2264 22.3145 13.2211 22.0057 12.2501 22.204V10.271L17.6051 7.49048C18.565 7.09119 19.0194 5.98927 18.6201 5.02939ZM8.75 3.50004C9.71651 3.50004 10.5 4.28353 10.5 5.25004C10.5 6.21655 9.71651 7.00004 8.75 7.00004C7.78393 6.99902 7.00102 6.21611 7 5.25004C7 4.28353 7.78349 3.50004 8.75 3.50004ZM3.5 23.3117C4.46651 23.3117 5.25 24.0952 5.25 25.0617C5.25 26.0282 4.46651 26.8117 3.5 26.8117C2.53349 26.8117 1.75 26.0282 1.75 25.0617C1.75102 24.0956 2.53393 23.3128 3.5 23.3117ZM5.83333 33.8334H1.16667V29.5284C1.16783 28.6847 1.85157 28.0011 2.69536 28H4.30464C5.14835 28.0011 5.83217 28.6847 5.83333 29.5284V33.8334ZM15.1667 29.5284V33.8334H10.5V29.5284C10.5012 28.6847 11.1849 28.0011 12.0287 28H13.638C14.4818 28.0011 15.1655 28.6847 15.1667 29.5284ZM12.8333 23.3117C13.7994 23.3127 14.5823 24.0956 14.5833 25.0617C14.5833 26.0282 13.7998 26.8117 12.8333 26.8117C11.8668 26.8117 11.0833 26.0282 11.0833 25.0617C11.0833 24.0952 11.8668 23.3117 12.8333 23.3117ZM17.5527 6.00254C17.4746 6.20292 17.3143 6.3602 17.1124 6.43435L11.3981 9.39885C11.2047 9.49919 11.0833 9.69891 11.0833 9.91671V22.7433C9.99068 23.5513 9.61217 25.0134 10.1757 26.25H9.33333V16.3334H8.16667V26.25H6.15767C6.32363 25.8833 6.41105 25.4859 6.41448 25.0834H6.41667V10.5C6.41659 10.1778 6.15533 9.91671 5.83319 9.91678C5.57849 9.91685 5.35325 10.0822 5.27683 10.3252L3.535 15.8679C3.40302 16.2319 3.00089 16.4201 2.63689 16.288C2.61136 16.2788 2.58635 16.268 2.562 16.2559C2.22549 16.082 2.08265 15.676 2.23621 15.3296L3.79334 9.96228C4.21327 8.88384 5.24993 8.17174 6.40726 8.16671H10.5376C10.6311 8.16685 10.7233 8.14432 10.8063 8.10123L16.604 5.09174C16.9518 4.94663 17.3527 5.09509 17.522 5.43182C17.6118 5.6093 17.6229 5.81638 17.5527 6.00254Z" fill="#EFC47A"/>
<path d="M24.202 27.1447C25.3557 26.0206 25.3798 24.174 24.2557 23.0202C23.1316 21.8665 21.285 21.8424 20.1313 22.9665C18.9775 24.0906 18.9534 25.9372 20.0775 27.0909C20.0952 27.1091 20.1132 27.127 20.1313 27.1447C19.2354 27.6025 18.6702 28.5224 18.6667 29.5285V34.4167C18.6666 34.7388 18.9276 35 19.2497 35.0001C19.2498 35.0001 19.2499 35.0001 19.25 35.0001H25.0833C25.4054 35.0001 25.6666 34.7391 25.6667 34.417C25.6667 34.417 25.6667 34.4168 25.6667 34.4167V29.5285C25.6632 28.5224 25.098 27.6025 24.202 27.1447ZM22.1667 23.3117C23.1332 23.3117 23.9167 24.0952 23.9167 25.0617C23.9167 26.0283 23.1332 26.8117 22.1667 26.8117C21.2001 26.8117 20.4167 26.0283 20.4167 25.0617C20.4177 24.0957 21.2006 23.3128 22.1667 23.3117ZM24.5 33.8334H19.8333V29.5285C19.8345 28.6848 20.5182 28.0011 21.362 28.0001H22.9713C23.815 28.0011 24.4988 28.6848 24.5 29.5285V33.8334Z" fill="#EFC47A"/>
<path d="M33.5353 27.1447C34.6891 26.0206 34.7131 24.174 33.5891 23.0202C32.465 21.8665 30.6184 21.8424 29.4646 22.9665C28.3108 24.0906 28.2868 25.9372 29.4109 27.0909C29.4286 27.1091 29.4465 27.127 29.4647 27.1447C28.5688 27.6025 28.0035 28.5224 28 29.5285V34.4167C27.9999 34.7388 28.261 35 28.583 35.0001C28.5831 35.0001 28.5833 35.0001 28.5833 35.0001H34.4167C34.7387 35.0001 34.9999 34.7391 35 34.417C35 34.417 35 34.4168 35 34.4167V29.5285C34.9965 28.5224 34.4313 27.6025 33.5353 27.1447ZM31.5 23.3117C32.4665 23.3117 33.25 24.0952 33.25 25.0617C33.25 26.0283 32.4665 26.8117 31.5 26.8117C30.5335 26.8117 29.75 26.0283 29.75 25.0617C29.751 24.0957 30.5339 23.3128 31.5 23.3117ZM33.8333 33.8334H29.1667V29.5285C29.1678 28.6848 29.8516 28.0011 30.6954 28.0001H32.3046C33.1484 28.0011 33.8322 28.6848 33.8333 29.5285V33.8334Z" fill="#EFC47A"/>
</g>
<defs>
<clipPath id="clip0">
<rect width="35" height="35" fill="white"/>
</clipPath>
</defs>
</svg>
