<svg width="35" height="35" viewBox="0 0 35 35" fill="none" xmlns="http://www.w3.org/2000/svg">
<path d="M32.0007 7.85254C32.2963 7.36043 32.4677 6.80374 32.5 6.23057C32.5323 5.6574 32.4246 5.08498 32.1861 4.56276C31.9476 4.04055 31.5856 3.58424 31.1313 3.23327C30.677 2.8823 30.1441 2.64722 29.5786 2.54834C29.0131 2.44945 28.432 2.48974 27.8856 2.66571C27.3391 2.84169 26.8437 3.14807 26.4422 3.55837C26.0407 3.96868 25.7451 4.47057 25.581 5.0207C25.4169 5.57082 25.3891 6.15263 25.5002 6.71587L18.3321 15.4112H15.9742C19.0731 12.0564 18.3638 6.81704 18.3291 6.57614C18.3164 6.48822 18.2795 6.40558 18.2225 6.33745C18.1655 6.26932 18.0907 6.21839 18.0064 6.19038C17.9221 6.16237 17.8316 6.15837 17.7452 6.17884C17.6588 6.1993 17.5797 6.24342 17.517 6.30626C15.1927 8.63047 13.8097 9.01329 12.5896 9.35071C11.4412 9.66817 10.4409 9.94544 9.16372 11.5945C7.57176 10.6914 5.54504 10.1502 3.47047 8.09372C3.40753 8.03133 3.32849 7.98764 3.24217 7.96754C3.15585 7.94743 3.06565 7.95169 2.98161 7.97985C2.89757 8.008 2.823 8.05894 2.76622 8.12699C2.70943 8.19504 2.67266 8.27752 2.66001 8.36524C2.24602 11.2363 2.63075 13.6013 3.80079 15.412H3.01575C2.88884 15.412 2.76712 15.4624 2.67739 15.5522C2.58765 15.6419 2.53723 15.7636 2.53723 15.8905C2.53723 22.109 4.21122 26.9557 9.74669 29.5859V32.0195C9.74676 32.1464 9.7972 32.2681 9.88692 32.3578C9.97664 32.4475 10.0983 32.4979 10.2252 32.498H24.0959C24.2228 32.498 24.3445 32.4476 24.4342 32.3579C24.524 32.2681 24.5744 32.1464 24.5744 32.0195V29.5859C30.1038 26.9584 31.7838 22.1211 31.7838 15.8905C31.7838 15.7636 31.7334 15.6419 31.6437 15.5522C31.5539 15.4624 31.4322 15.412 31.3053 15.412H27.5592L30.0128 9.40868C30.8453 9.15405 31.5536 8.59954 32.0007 7.85254ZM26.7507 4.71594C27.0123 4.27808 27.3979 3.92763 27.8587 3.70891C28.3196 3.4902 28.8349 3.41304 29.3395 3.4872C29.8442 3.56135 30.3155 3.78349 30.694 4.12553C31.0724 4.46756 31.3409 4.91412 31.4655 5.40875C31.5901 5.90338 31.5653 6.42385 31.3941 6.90435C31.2229 7.38486 30.9131 7.80381 30.5038 8.10824C30.0945 8.41267 29.6042 8.58889 29.0947 8.61464C28.5853 8.64038 28.0797 8.51448 27.6418 8.25286C27.0554 7.90127 26.6324 7.3315 26.4654 6.66849C26.2985 6.00547 26.4013 5.3033 26.7512 4.71594H26.7507ZM12.845 10.2733C13.9825 9.95856 15.3697 9.57493 17.4513 7.69067C17.5036 9.46501 17.2599 13.2272 14.5753 15.4112H11.6875C11.6818 15.3636 11.6736 15.3209 11.6673 15.2745L13.9095 12.9809C13.9565 12.9367 13.9942 12.8834 14.0201 12.8243C14.046 12.7652 14.0598 12.7014 14.0604 12.6369C14.0611 12.5723 14.0487 12.5083 14.024 12.4487C13.9993 12.389 13.9628 12.335 13.9166 12.2898C13.8705 12.2447 13.8157 12.2093 13.7556 12.1858C13.6954 12.1624 13.6312 12.1513 13.5667 12.1534C13.5021 12.1554 13.4387 12.1704 13.3801 12.1976C13.3216 12.2248 13.2691 12.2635 13.2259 12.3115L11.41 14.1684C11.146 13.3567 10.6426 12.6439 9.96598 12.1236C11.0225 10.7805 11.801 10.5618 12.845 10.2733ZM3.50192 9.42126C7.0886 12.4775 10.2077 11.7649 10.7207 15.4112H9.26543L6.96282 13.6475C6.91307 13.6079 6.85592 13.5786 6.79471 13.5613C6.73351 13.544 6.66947 13.5391 6.60635 13.5469C6.54323 13.5547 6.48229 13.5749 6.42709 13.6065C6.37189 13.6381 6.32354 13.6804 6.28486 13.7309C6.24619 13.7813 6.21797 13.839 6.20185 13.9005C6.18573 13.9621 6.18203 14.0262 6.19098 14.0891C6.19992 14.1521 6.22133 14.2127 6.25395 14.2673C6.28656 14.3219 6.32974 14.3694 6.38094 14.4071L7.6918 15.4112H4.98067C3.79176 13.9272 3.29438 11.9175 3.50192 9.42126ZM10.7037 31.5407V29.7634H23.6173V31.5407H10.7037ZM23.9928 28.8063H10.3291C6.76129 27.1657 4.71051 24.5049 3.90524 20.4698H30.4158C29.6111 24.5041 27.56 27.1665 23.9922 28.8063H23.9928ZM30.5807 19.5127H3.7409C3.59141 18.471 3.51021 17.4206 3.49782 16.3682H30.8232C30.8095 17.4205 30.7284 18.4708 30.5802 19.5127H30.5807ZM19.5732 15.4112L25.8806 7.7593C26.1806 8.30219 26.619 8.75595 27.1513 9.07443C27.6835 9.39291 28.2906 9.56475 28.9108 9.57247L26.5234 15.4112H19.5732Z" fill="#EFC47A"/>
</svg>
