<svg width="35" height="35" viewBox="0 0 35 35" fill="none" xmlns="http://www.w3.org/2000/svg">
<g clip-path="url(#clip0)">
<path d="M6.47664 21.247C5.87392 21.6045 5.46875 22.2615 5.46875 23.0117C5.46875 24.1425 6.38873 25.0625 7.51953 25.0625C8.41066 25.0625 9.17055 24.4909 9.45273 23.6953H14.7656C15.8964 23.6953 16.8164 24.6153 16.8164 25.7461C16.8164 26.8769 15.8964 27.7969 14.7656 27.7969H6.5625C4.67783 27.7969 3.14453 29.3302 3.14453 31.2148C3.14453 33.0995 4.67783 34.6328 6.5625 34.6328H13.3984C13.776 34.6328 14.082 34.3268 14.082 33.9492C14.082 33.5717 13.776 33.2656 13.3984 33.2656H6.5625C5.4317 33.2656 4.51172 32.3456 4.51172 31.2148C4.51172 30.084 5.4317 29.1641 6.5625 29.1641H14.7656C16.6503 29.1641 18.1836 27.6308 18.1836 25.7461C18.1836 23.8614 16.6503 22.3281 14.7656 22.3281H9.45273C9.29106 21.8723 8.97265 21.4902 8.56242 21.247L13.7836 12.6804C14.6049 11.4459 15.0391 10.0073 15.0391 8.51953C15.0391 4.37326 11.6658 1 7.51953 1C3.37326 1 0 4.37326 0 8.51953C0 10.0073 0.43415 11.4459 1.25549 12.6804L6.47664 21.247ZM7.51953 23.6953C7.1426 23.6953 6.83594 23.3887 6.83594 23.0117C6.83594 22.6348 7.1426 22.3281 7.51953 22.3281C7.89646 22.3281 8.20312 22.6348 8.20312 23.0117C8.20312 23.3887 7.89646 23.6953 7.51953 23.6953ZM7.51953 2.36719C10.9119 2.36719 13.6719 5.12713 13.6719 8.51953C13.6719 9.74098 13.3146 10.9213 12.6386 11.9331C12.6334 11.9409 12.6282 11.9489 12.6233 11.9571L7.51953 20.331C7.51953 20.331 2.4057 11.9409 2.40044 11.9331C1.7245 10.9213 1.36719 9.74098 1.36719 8.51953C1.36719 5.12713 4.12713 2.36719 7.51953 2.36719Z" fill="#EFC47A"/>
<path d="M7.51953 11.9375C9.4042 11.9375 10.9375 10.4042 10.9375 8.51953C10.9375 6.63486 9.4042 5.10156 7.51953 5.10156C5.63486 5.10156 4.10156 6.63486 4.10156 8.51953C4.10156 10.4042 5.63486 11.9375 7.51953 11.9375ZM7.51953 6.46875C8.65033 6.46875 9.57031 7.38873 9.57031 8.51953C9.57031 9.65033 8.65033 10.5703 7.51953 10.5703C6.38873 10.5703 5.46875 9.65033 5.46875 8.51953C5.46875 7.38873 6.38873 6.46875 7.51953 6.46875Z" fill="#EFC47A"/>
<path d="M27.4805 12.3477C23.3342 12.3477 19.9609 15.7209 19.9609 19.8672C19.9609 21.3574 20.3965 22.7981 21.2204 24.034L26.4221 32.1933C26.0193 32.437 25.707 32.8155 25.5473 33.2656H19.5508C19.1732 33.2656 18.8672 33.5717 18.8672 33.9492C18.8672 34.3268 19.1732 34.6328 19.5508 34.6328H25.5473C25.8295 35.4284 26.5893 36 27.4805 36C28.6113 36 29.5312 35.08 29.5312 33.9492C29.5312 33.2054 29.1332 32.5529 28.5389 32.1933L33.7406 24.034C34.5645 22.7981 35 21.3574 35 19.8672C35 15.7209 31.6267 12.3477 27.4805 12.3477ZM27.4805 34.6328C27.1035 34.6328 26.7969 34.3262 26.7969 33.9492C26.7969 33.5723 27.1035 33.2656 27.4805 33.2656C27.8574 33.2656 28.1641 33.5723 28.1641 33.9492C28.1641 34.3262 27.8574 34.6328 27.4805 34.6328ZM32.5996 23.2807C32.5969 23.2848 27.4805 31.3103 27.4805 31.3103C27.4805 31.3103 22.364 23.2847 22.3614 23.2807C21.6854 22.269 21.3281 21.0886 21.3281 19.8672C21.3281 16.4748 24.0881 13.7148 27.4805 13.7148C30.8729 13.7148 33.6328 16.4748 33.6328 19.8672C33.6328 21.0886 33.2755 22.269 32.5996 23.2807Z" fill="#EFC47A"/>
<path d="M27.4805 16.4492C25.5958 16.4492 24.0625 17.9825 24.0625 19.8672C24.0625 21.7519 25.5958 23.2852 27.4805 23.2852C29.3651 23.2852 30.8984 21.7519 30.8984 19.8672C30.8984 17.9825 29.3651 16.4492 27.4805 16.4492ZM27.4805 21.918C26.3497 21.918 25.4297 20.998 25.4297 19.8672C25.4297 18.7364 26.3497 17.8164 27.4805 17.8164C28.6113 17.8164 29.5312 18.7364 29.5312 19.8672C29.5312 20.998 28.6113 21.918 27.4805 21.918Z" fill="#EFC47A"/>
<path d="M16.4746 34.6328C16.8521 34.6328 17.1582 34.3268 17.1582 33.9492C17.1582 33.5717 16.8521 33.2656 16.4746 33.2656C16.0971 33.2656 15.791 33.5717 15.791 33.9492C15.791 34.3268 16.0971 34.6328 16.4746 34.6328Z" fill="#EFC47A"/>
</g>
<defs>
<clipPath id="clip0">
<rect width="35" height="35" fill="white"/>
</clipPath>
</defs>
</svg>
