<svg width="35" height="35" viewBox="0 0 35 35" fill="none" xmlns="http://www.w3.org/2000/svg">
<path d="M3.28125 18.5938H6.1881C6.07914 18.8969 6.0625 19.2256 6.14029 19.5382C6.21807 19.8508 6.38679 20.1333 6.62512 20.35L11.1148 24.4653L11.1152 24.4649C11.119 24.4683 11.1221 24.4721 11.1262 24.4754L18.2215 30.625H18.0469C17.9018 30.625 17.7627 30.6826 17.6602 30.7852C17.5576 30.8877 17.5 31.0268 17.5 31.1719V33.3594C17.5 33.5044 17.5576 33.6435 17.6602 33.7461C17.7627 33.8486 17.9018 33.9062 18.0469 33.9062H24.6094C24.7544 33.9062 24.8935 33.8486 24.9961 33.7461C25.0986 33.6435 25.1562 33.5044 25.1562 33.3594V31.1719C25.1562 31.0268 25.0986 30.8877 24.9961 30.7852C24.8935 30.6826 24.7544 30.625 24.6094 30.625V29.7577L24.9022 29.4649C25.1569 29.2116 25.3589 28.9102 25.4964 28.5784C25.6338 28.2465 25.7041 27.8906 25.7031 27.5314V24.181L27.6855 19.8196C27.8619 19.4335 27.881 18.9937 27.7386 18.5938H31.7188C32.1537 18.5932 32.5707 18.4202 32.8783 18.1127C33.1859 17.8051 33.3589 17.3881 33.3594 16.9531V15.8594C33.3594 15.7143 33.3018 15.5752 33.1992 15.4727C33.0966 15.3701 32.9575 15.3125 32.8125 15.3125H30.625V14.7656C30.625 8.43309 25.4732 3.28125 19.1406 3.28125V2.1875H19.6875C19.8325 2.1875 19.9716 2.12988 20.0742 2.02732C20.1768 1.92477 20.2344 1.78567 20.2344 1.64062C20.2344 1.49558 20.1768 1.35648 20.0742 1.25393C19.9716 1.15137 19.8325 1.09375 19.6875 1.09375H15.3125C15.1675 1.09375 15.0284 1.15137 14.9258 1.25393C14.8232 1.35648 14.7656 1.49558 14.7656 1.64062C14.7656 1.78567 14.8232 1.92477 14.9258 2.02732C15.0284 2.12988 15.1675 2.1875 15.3125 2.1875H15.8594V3.28125C9.52684 3.28125 4.375 8.43309 4.375 14.7656V15.3125H2.1875C2.04246 15.3125 1.90336 15.3701 1.8008 15.4727C1.69824 15.5752 1.64063 15.7143 1.64062 15.8594V16.9531C1.64113 17.3881 1.81415 17.8051 2.12171 18.1127C2.42928 18.4202 2.84628 18.5932 3.28125 18.5938ZM7.22401 18.9424C7.26249 18.8387 7.33217 18.7495 7.42345 18.6871C7.51473 18.6246 7.62312 18.592 7.7337 18.5938H8.0459C8.15087 18.5939 8.25359 18.6242 8.34185 18.681C8.43011 18.7378 8.50019 18.8188 8.54376 18.9143L8.95487 19.8187V19.8195L9.87636 21.8467L7.36415 19.5439C7.28144 19.4705 7.22355 19.3732 7.19845 19.2654C7.17335 19.1577 7.18228 19.0448 7.22401 18.9424ZM24.0625 32.8125H18.5938V31.7188H24.0625V32.8125ZM26.6518 18.8446C26.7022 18.9212 26.7321 19.0094 26.7388 19.1008C26.7454 19.1922 26.7286 19.2838 26.6899 19.3669L24.6584 23.8362C24.6261 23.9073 24.6094 23.9844 24.6094 24.0625V27.5314C24.61 27.7469 24.5678 27.9604 24.4853 28.1596C24.4028 28.3587 24.2817 28.5395 24.1289 28.6915L23.6758 29.1445C23.625 29.1953 23.5847 29.2556 23.5572 29.322C23.5298 29.3883 23.5156 29.4594 23.5156 29.5312V30.625H19.8915L11.9328 23.7275L9.95039 19.367C9.91251 19.2836 9.89614 19.1921 9.9028 19.1008C9.90947 19.0095 9.93894 18.9214 9.98852 18.8444C10.0381 18.7675 10.1062 18.7042 10.1866 18.6604C10.267 18.6166 10.3571 18.5937 10.4486 18.5938H10.8084C10.91 18.5934 11.0097 18.6215 11.0962 18.675C11.1826 18.7284 11.2524 18.805 11.2975 18.896L13.1828 22.6665C13.2427 22.7863 13.3444 22.8799 13.4688 22.9296L18.9375 25.1171C19.0443 25.1598 19.1617 25.1678 19.2732 25.1399L21.4607 24.593C21.5341 24.5747 21.6028 24.5414 21.6626 24.4951C21.7224 24.4489 21.772 24.3907 21.8082 24.3244L24.7786 18.8787C24.8256 18.7925 24.8951 18.7205 24.9796 18.6703C25.0641 18.6202 25.1605 18.5937 25.2588 18.5938H26.1922C26.2838 18.5929 26.3741 18.6155 26.4546 18.6594C26.535 18.7033 26.6029 18.767 26.6518 18.8446ZM12.3692 18.5938H23.6882L20.9629 23.5901L19.1795 24.0359L14.0684 21.9912L12.3692 18.5938ZM16.9531 2.1875H18.0469V3.28125H16.9531V2.1875ZM5.46875 14.7656C5.46875 9.03622 10.13 4.375 15.8594 4.375H19.1406C24.87 4.375 29.5312 9.03622 29.5312 14.7656V15.3125H5.46875V14.7656ZM2.73438 16.4062H32.2656V16.9531C32.2655 17.0981 32.2078 17.2371 32.1053 17.3396C32.0027 17.4422 31.8637 17.4998 31.7188 17.5H3.28125C3.13626 17.4998 2.99725 17.4422 2.89473 17.3396C2.79221 17.2371 2.73454 17.0981 2.73438 16.9531V16.4062Z" fill="#EFC47A"/>
</svg>
