<svg width="20" height="20" viewBox="0 0 20 20" fill="none" xmlns="http://www.w3.org/2000/svg">
<g clip-path="url(#clip0)">
<path d="M7.95139 13.477L10.7135 5.19058C10.8158 4.88359 10.6499 4.55175 10.3429 4.4494C10.036 4.3471 9.70409 4.513 9.60174 4.81999L6.83963 13.1065C6.73733 13.4134 6.90323 13.7453 7.21022 13.8476C7.27166 13.8681 7.33416 13.8778 7.39557 13.8778C7.64088 13.8779 7.86952 13.7226 7.95139 13.477V13.477Z" fill="#2C281B"/>
<path d="M12.0911 10.9064C13.0604 10.9064 13.8489 10.1178 13.8489 9.14856C13.8489 8.1793 13.0604 7.39075 12.0911 7.39075C11.1219 7.39075 10.3333 8.1793 10.3333 9.14856C10.3333 10.1178 11.1219 10.9064 12.0911 10.9064ZM12.0911 8.56262C12.4142 8.56262 12.6771 8.82547 12.6771 9.14856C12.6771 9.47164 12.4142 9.7345 12.0911 9.7345C11.768 9.7345 11.5052 9.47164 11.5052 9.14856C11.5052 8.82547 11.768 8.56262 12.0911 8.56262Z" fill="#2C281B"/>
<path d="M5.46197 7.39075C4.49272 7.39075 3.70416 8.1793 3.70416 9.14856C3.70416 10.1178 4.49272 10.9064 5.46197 10.9064C6.43123 10.9064 7.21979 10.1178 7.21979 9.14856C7.21979 8.1793 6.43127 7.39075 5.46197 7.39075V7.39075ZM5.46197 9.7345C5.13889 9.7345 4.87604 9.47164 4.87604 9.14856C4.87604 8.82547 5.13889 8.56262 5.46197 8.56262C5.78506 8.56262 6.04791 8.82547 6.04791 9.14856C6.04791 9.47164 5.7851 9.7345 5.46197 9.7345Z" fill="#2C281B"/>
<path d="M19.8831 7.26586L17.8398 4.54152L17.9195 3.98359C17.9456 3.80102 17.8842 3.6168 17.7538 3.48641L16.5108 2.24344L17.7538 1.00047C17.9826 0.77168 17.9826 0.400664 17.7538 0.171836C17.525 -0.0569531 17.154 -0.0569531 16.9251 0.171836L15.6822 1.4148L14.4392 0.171836C14.3088 0.0414062 14.1246 -0.0197656 13.942 0.00609374L8.14153 0.834727C8.01602 0.852656 7.89973 0.91082 7.81008 1.00047L0.628516 8.18203C-0.20918 9.01969 -0.20918 10.3827 0.628516 11.2204L6.7052 17.2971C6.8295 17.4214 6.96559 17.5268 7.10961 17.6142V17.8518C7.10961 19.0364 8.0734 20.0002 9.25805 20.0002H17.8518C19.0365 20.0002 20.0002 19.0364 20.0002 17.8518V7.61742C20.0002 7.49066 19.9591 7.36727 19.8831 7.26586V7.26586ZM1.45715 10.3918C1.07637 10.011 1.07637 9.39144 1.45715 9.01066L8.50059 1.96723L13.8177 1.20766L14.8535 2.24348L14.0249 3.07211L13.6106 2.65777C13.3818 2.42898 13.0107 2.42898 12.7819 2.65777C12.5531 2.88656 12.5531 3.25758 12.7819 3.48641L14.4392 5.14371C14.5536 5.25812 14.7036 5.31535 14.8535 5.31535C15.0034 5.31535 15.1534 5.25812 15.2678 5.14371C15.4966 4.91492 15.4966 4.54391 15.2678 4.31508L14.8535 3.90074L15.6821 3.07211L16.7179 4.10793L15.9583 9.42504L8.91493 16.4685C8.73047 16.6529 8.48524 16.7545 8.22438 16.7545C7.96352 16.7545 7.71828 16.6529 7.53383 16.4685L1.45715 10.3918ZM18.8284 17.8518C18.8284 18.3903 18.3903 18.8284 17.8518 18.8284H9.25805C8.74383 18.8284 8.32149 18.4288 8.28442 17.9239C8.81438 17.9092 9.33996 17.7007 9.74352 17.2971L16.9251 10.1155C17.0147 10.0259 17.0729 9.90961 17.0908 9.7841L17.6054 6.18215L18.8284 7.81273V17.8518Z" fill="#2C281B"/>
</g>
<defs>
<clipPath id="clip0">
<rect width="20" height="20" fill="white"/>
</clipPath>
</defs>
</svg>
